<?xml version="1.0" standalone="no"?>
<!DOCTYPE svg PUBLIC "-//W3C//DTD SVG 20010904//EN"
 "http://www.w3.org/TR/2001/REC-SVG-20010904/DTD/svg10.dtd">
<svg version="1.0" xmlns="http://www.w3.org/2000/svg"
 width="256.000000pt" height="256.000000pt" viewBox="0 0 256.000000 256.000000"
 preserveAspectRatio="xMidYMid meet">
<metadata>
Created by potrace 1.14, written by Peter Selinger 2001-2017
</metadata>
<g transform="translate(0.000000,256.000000) scale(0.100000,-0.100000)"
fill="#000000" stroke="none">
<path d="M1314 2544 c-18 -7 -42 -29 -54 -49 -25 -40 -28 -41 -78 -17 -26 13
-55 18 -99 16 -53 -3 -74 -10 -141 -48 -43 -25 -98 -53 -122 -61 -45 -16 -120
-83 -120 -107 0 -8 -29 -28 -65 -46 -67 -35 -112 -81 -135 -142 -7 -19 -30
-51 -50 -70 -40 -38 -68 -101 -72 -165 -2 -29 -10 -46 -30 -63 -38 -32 -68
-105 -68 -162 0 -33 -5 -50 -15 -54 -48 -18 -75 -157 -39 -197 15 -16 14 -21
-15 -56 -48 -61 -60 -155 -28 -218 6 -11 9 -42 8 -70 -1 -27 3 -65 8 -83 7
-23 6 -39 -4 -58 -16 -31 -10 -126 10 -158 7 -11 21 -50 29 -86 22 -87 51
-131 141 -220 43 -41 91 -95 108 -120 45 -67 74 -87 239 -172 104 -53 167 -80
202 -84 28 -4 69 -15 91 -24 93 -40 203 -33 279 18 l41 28 49 -17 c34 -12 73
-15 129 -13 119 5 213 35 320 102 51 31 103 58 117 60 81 10 169 84 186 157 4
17 19 43 35 58 28 28 85 132 108 197 7 19 15 58 18 85 3 28 13 61 23 75 40 58
70 157 70 231 0 62 -4 79 -25 109 -23 33 -24 41 -14 66 14 34 12 110 -4 139
-6 11 -12 48 -13 83 -1 45 -7 69 -20 84 -14 14 -19 37 -20 80 -1 51 -6 64 -31
91 -18 20 -30 45 -32 67 -2 19 -7 40 -12 46 -4 6 -14 35 -20 64 -6 30 -22 70
-34 90 -13 19 -31 64 -41 100 -20 74 -61 125 -136 166 -36 21 -50 36 -63 70
-30 79 -112 136 -195 136 -15 0 -45 18 -75 44 -41 34 -60 44 -98 47 -25 3 -66
16 -89 29 -54 32 -113 40 -154 22z"/>
</g>
</svg>
